<?xml version="1.0" encoding="utf-8"?>
<!-- Generator: Adobe Illustrator 25.3.1, SVG Export Plug-In . SVG Version: 6.00 Build 0)  -->
<svg version="1.1" id="Layer_1" xmlns="http://www.w3.org/2000/svg" xmlns:xlink="http://www.w3.org/1999/xlink" x="0px" y="0px"
	 viewBox="0 0 600 450" style="enable-background:new 0 0 600 450;" xml:space="preserve">
<style type="text/css">
	.st0{fill:#34D399;}
	.st1{fill:#F5F5F5;}
</style>
<rect class="st0" width="600" height="450"/>
<g>
	<g>
		<g>
			<g>
				<path class="st1" d="M165.1,242.6c8,0,13.6,5.2,13.6,12.8c0,7.5-5.6,12.8-13.8,12.8h-10.7v-25.5H165.1z M160.6,263h4.6
					c4,0,6.8-3.1,6.8-7.5c0-4.5-3-7.6-7.1-7.6h-4.3V263z"/>
				<path class="st1" d="M188.1,263.5l-1.9,4.7h-6.7l11-25.5h6.7l10.8,25.5H201l-1.8-4.7H188.1z M193.7,249.1l-3.7,9.4h7.4
					L193.7,249.1z"/>
				<path class="st1" d="M217.7,268.2l-9.9-25.5h6.9l6.5,18.8l6.5-18.8h6.7l-10,25.5H217.7z"/>
				<path class="st1" d="M236.5,268.2v-25.5h6.5v25.5H236.5z"/>
				<path class="st1" d="M259.3,242.6c8,0,13.6,5.2,13.6,12.8c0,7.5-5.6,12.8-13.8,12.8h-10.7v-25.5H259.3z M254.8,263h4.6
					c4,0,6.8-3.1,6.8-7.5c0-4.5-3-7.6-7.1-7.6h-4.3V263z"/>
				<path class="st1" d="M299.4,268.2v-11.2H284v11.2h-2.9v-25.5h2.9v11.5h15.4v-11.5h2.9v25.5H299.4z"/>
				<path class="st1" d="M312.4,261.7l-2.8,6.5h-3.1l11.5-25.5h3l11.4,25.5h-3.2l-2.8-6.5H312.4z M319.4,245.9l-5.7,12.9h11.5
					L319.4,245.9z"/>
				<path class="st1" d="M354.6,268.2l-15.3-20.5v20.5h-2.9v-25.5h3l15.3,20.5v-20.5h2.9v25.5H354.6z"/>
				<path class="st1" d="M379.1,265.4v2.8H365v-25.5h2.9v22.8H379.1z"/>
				<path class="st1" d="M408.4,255.4c0,7.2-5.9,12.9-13.3,12.9c-7.5,0-13.4-5.7-13.4-12.9c0-7.2,5.9-12.8,13.4-12.8
					C402.5,242.6,408.4,248.2,408.4,255.4z M384.6,255.4c0,5.6,4.7,10.1,10.4,10.1c5.7,0,10.4-4.5,10.4-10.1
					c0-5.6-4.7-10.1-10.4-10.1C389.3,245.3,384.6,249.8,384.6,255.4z"/>
				<path class="st1" d="M431.6,268.2l-15.3-20.5v20.5h-2.9v-25.5h3l15.3,20.5v-20.5h2.9v25.5H431.6z"/>
			</g>
		</g>
	</g>
	<g>
		<path class="st1" d="M345.3,190.4v-11.6c0-4.3-3.4-7.6-8.1-7.6l-14.5-0.2c-3.1,0-5.6,2.5-5.6,5.6V196h-26.4v-25h-7.7v25.2
			c-1.1-6.2-4.1-11.9-8.4-16.1c-5.5-5.5-13.1-8.9-21.5-8.9H249v43.6h4.6c1.7,0,3.1-1.4,3.1-3.1v-32.4c4.7,0.8,8.9,3.1,12.2,6.3
			c4.1,4.1,6.6,9.8,6.6,16.1c0,6.3-2.5,11.9-6.6,16.1c-4.1,4.1-9.8,6.6-16.1,6.6h-10.9c-2.2,0-4.2-1.3-5-3.3
			c-0.2-0.5-0.3-0.9-0.3-1.4v-12c0-3.7-3.4-5.3-5.2-5.7l-1-0.3c0.1,0,0.4-0.1,0.9-0.1c1.8-0.3,5.3-1.7,5.3-5.9v-12.5
			c0-2.8,0.9-4.7,4.1-4.7h4.6v-7.2h-10.1c-4.7,0-8.1,3.3-8.1,7.6v11.6c0,4.5-1.4,6.6-4.9,7.4v7.7c4.8,1,4.9,4.7,4.9,8.8v9.7
			c0,4.3,2.8,8.2,7.5,8.2l18.1-0.1c8.4,0,16-3.4,21.5-8.9c4.3-4.3,7.3-9.9,8.4-16.1v25.8h7.7v-29H317v29h9v-51
			c0-1.9,1.5-3.4,3.4-3.4h2.2c3.2,0,4.1,1.9,4.1,4.7v12.5c0,4.2,3.5,5.6,5.3,5.9c0.6,0.1,0.9,0.1,0.9,0.1l-1,0.3
			c-1.8,0.4-5.2,2.1-5.2,5.7v12c0,2.8-0.7,5.4-4.1,5.4h-2.1v7.2h8.2c4.7,0,7.5-3.8,7.5-8.2v-9.7c0-4.1,0.1-7.7,4.9-8.8v-7.7
			C346.8,197.1,345.3,195,345.3,190.4"/>
	</g>
</g>
</svg>
