<?xml version="1.0" encoding="utf-8"?>
<!-- Generator: Adobe Illustrator 25.3.1, SVG Export Plug-In . SVG Version: 6.00 Build 0)  -->
<svg version="1.1" id="Layer_1" xmlns="http://www.w3.org/2000/svg" xmlns:xlink="http://www.w3.org/1999/xlink" x="0px" y="0px"
	 viewBox="0 0 600 450" style="enable-background:new 0 0 600 450;" xml:space="preserve">
<style type="text/css">
	.st0{fill:#FFFFFF;}
	.st1{fill:#62646A;}
	.st2{fill:#34D399;}
</style>
<rect class="st0" width="600" height="450"/>
<g>
	<g>
		<g>
			<path class="st1" d="M246.8,224.6c0.1,6.5-3.8,13-12.8,13c-3.1,0-6.9,0-10,0v-25.5c3.1,0,6.9,0,10,0
				C242.8,212.1,246.7,218.3,246.8,224.6z M228.8,233h5.3c5.8,0,8.1-4.2,8-8.4c-0.1-4-2.4-8-8-8h-5.3V233z"/>
			<path class="st1" d="M264.1,219.6h4.3v18h-4.2L264,235c-1,2.1-3.8,3.1-5.8,3.2c-5.3,0-9.3-3.2-9.3-9.6c0-6.2,4.1-9.4,9.4-9.4
				c2.4,0,4.7,1.1,5.7,2.9L264.1,219.6z M253.3,228.6c0,3.4,2.4,5.5,5.3,5.5c7,0,7-10.9,0-10.9C255.7,223.1,253.3,225.2,253.3,228.6
				z"/>
			<path class="st1" d="M290.8,219.6l-7.7,18.1h-4.8l-7.7-18.1h4.9l2.5,5.9l2.8,7.6l2.7-7.5l2.5-6H290.8z"/>
			<path class="st1" d="M297.4,214.5c0,3.5-5.3,3.5-5.3,0C292.1,211.1,297.4,211.1,297.4,214.5z M292.5,219.5v18.1h4.4v-18.1H292.5z
				"/>
			<path class="st1" d="M319.8,212.1v25.5h-4.2l-0.3-2.5c-1.4,2.2-3.6,2.9-5.8,2.9c-5.3,0-9.3-3.5-9.3-9.4c0-6.2,3.9-9.4,9.2-9.4
				c1.9,0,4.9,1,5.9,2.9v-10H319.8z M304.8,228.6c0,3.1,2.3,5.3,5.1,5.3c2.8,0,5.2-2,5.2-5.3c0-3.1-2.4-5.3-5.2-5.3
				C307,223.3,304.8,225.3,304.8,228.6z"/>
			<path class="st1" d="M345.2,237.6V226H329v11.6h-2v-25.5h2v12.1h16.3v-12.1h2v25.5H345.2z"/>
			<path class="st1" d="M370,219.6c0,6,0,12,0,18h-1.8v-3.8c-1.8,2.8-4.4,4.1-7.4,4.1c-5,0-9.2-3.8-9.2-9.3c0-5.5,4.1-9.2,9.2-9.2
				c2.9,0,5.9,1.3,7.4,4.2v-3.9H370z M353.5,228.6c0,4.5,3.3,7.5,7.4,7.5c10,0,10-15.1,0-15.1C356.8,221.1,353.5,224.1,353.5,228.6z
				"/>
			<path class="st1" d="M376.6,219.6v3.2c1.4-2.5,3.9-3.5,6.4-3.5c4.8,0,8.1,3,8.1,7.9v10.4h-1.8v-10.4c0-4.1-2.5-6.3-6.4-6.2
				c-3.7,0-6.3,2.8-6.3,6.6v10h-1.8v-18H376.6z"/>
			<path class="st1" d="M397.2,212.1v25.5h-1.8v-25.5H397.2z"/>
			<path class="st1" d="M401.6,228.6c0-5.7,4.1-9.4,9.2-9.4c5.1,0,9.2,3.6,9.2,9.4s-4.1,9.2-9.2,9.2
				C405.7,237.8,401.6,234.3,401.6,228.6z M418.1,228.6c0-4.7-3.3-7.7-7.4-7.7c-4.1,0-7.4,3-7.4,7.7s3.3,7.5,7.4,7.5
				C414.8,236.1,418.1,233.3,418.1,228.6z"/>
			<path class="st1" d="M425.4,219.6v3.2c1.4-2.5,3.9-3.5,6.4-3.5c4.8,0,8.1,3,8.1,7.9v10.4h-1.8v-10.4c0-4.1-2.5-6.3-6.4-6.2
				c-3.7,0-6.3,2.8-6.3,6.6v10h-1.8v-18H425.4z"/>
		</g>
	</g>
</g>
<g>
	<path class="st2" d="M157.2,258.1c-4.8,0-7.7-3.9-7.7-8.4v-9.9c0-4.2-0.1-7.9-5-9v-7.9c3.6-0.8,5-2.9,5-7.6v-11.9
		c0-4.4,3.5-7.8,8.3-7.8h7.7v7.4h-2.1c-3.3,0-4.2,1.9-4.2,4.8v12.9c0,4.3-3.6,5.7-5.4,6c-0.6,0.1-0.9,0.1-1,0.1l1,0.3
		c1.9,0.5,5.4,2.1,5.4,5.9v12.3c0,2.9,0.7,5.6,4.2,5.6h2.1v7.4H157.2z"/>
</g>
<g>
	<g>
		<path class="st2" d="M189.6,258.1v-7.4h2.1c3.5,0,4.2-2.6,4.2-5.6v-12.3c0-3.7,3.5-5.4,5.4-5.9l1-0.3c-0.1,0-0.4-0.1-1-0.1
			c-1.9-0.3-5.4-1.7-5.4-6v-12.9c0-2.9-0.9-4.8-4.2-4.8h-2.1v-7.4h7.7c4.8,0,8.3,3.4,8.3,7.8v11.9c0,4.6,1.5,6.8,5,7.6v7.9
			c-4.9,1-5,4.8-5,9v9.9c0,4.5-2.8,8.4-7.7,8.4H189.6z"/>
	</g>
</g>
<polygon class="st2" points="163.8,271.5 206.3,178.5 196.2,178.5 153.6,271.5 "/>
</svg>
