<?xml version="1.0" encoding="UTF-8"?>
<svg width="129px" height="62px" viewBox="0 0 129 62" version="1.1" xmlns="http://www.w3.org/2000/svg" xmlns:xlink="http://www.w3.org/1999/xlink">
    <!-- Generator: Sketch 51.3 (57544) - http://www.bohemiancoding.com/sketch -->
    <title>Shape</title>
    <desc>Created with Sketch.</desc>
    <defs></defs>
    <g id="Page-1" stroke="none" stroke-width="1" fill="none" fill-rule="evenodd">
        <g id="A" transform="translate(-222.000000, -171.000000)" fill="#34d399" fill-rule="nonzero">
            <g id="Group" transform="translate(154.000000, 171.000000)">
                <path d="M191.3,19.4 L191.3,7.8 C191.3,3.5 187.9,0.2 183.2,0.2 L168.7,2.84217094e-14 C165.6,2.84217094e-14 163.1,2.5 163.1,5.6 L163.1,25 L136.7,25 L136.7,0 L129,0 L129,25.2 C127.9,19 124.9,13.3 120.6,9.1 C115.1,3.6 107.5,0.2 99.1,0.2 L95,0.2 L95,43.8 L99.6,43.8 C101.3,43.8 102.7,42.4 102.7,40.7 L102.7,8.3 C107.4,9.1 111.6,11.4 114.9,14.6 C119,18.7 121.5,24.4 121.5,30.7 C121.5,37 119,42.6 114.9,46.8 C110.8,50.9 105.1,53.4 98.8,53.4 L87.9,53.4 C85.7,53.4 83.7,52.1 82.9,50.1 C82.7,49.6 82.6,49.2 82.6,48.7 L82.6,36.7 C82.6,33 79.2,31.4 77.4,31 L76.4,30.7 C76.5,30.7 76.8,30.6 77.3,30.6 C79.1,30.3 82.6,28.9 82.6,24.7 L82.6,12.2 C82.6,9.4 83.5,7.5 86.7,7.5 L91.3,7.5 L91.3,0.3 L81.2,0.3 C76.5,0.3 73.1,3.6 73.1,7.9 L73.1,19.5 C73.1,24 71.7,26.1 68.2,26.9 L68.2,34.6 C73,35.6 73.1,39.3 73.1,43.4 L73.1,53.1 C73.1,57.4 75.9,61.3 80.6,61.3 L98.7,61.2 C107.1,61.2 114.7,57.8 120.2,52.3 C124.5,48 127.5,42.4 128.6,36.2 L128.6,62 L136.3,62 L136.3,33 L163,33 L163,62 L172,62 L172,11 C172,9.1 173.5,7.6 175.4,7.6 L177.6,7.6 C180.8,7.6 181.7,9.5 181.7,12.3 L181.7,24.8 C181.7,29 185.2,30.4 187,30.7 C187.6,30.8 187.9,30.8 187.9,30.8 L186.9,31.1 C185.1,31.5 181.7,33.2 181.7,36.8 L181.7,48.8 C181.7,51.6 181,54.2 177.6,54.2 L175.5,54.2 L175.5,61.4 L183.7,61.4 C188.4,61.4 191.2,57.6 191.2,53.2 L191.2,43.5 C191.2,39.4 191.3,35.8 196.1,34.7 L196.1,27 C192.8,26.1 191.3,24 191.3,19.4" id="Shape"></path>
            </g>
        </g>
    </g>
</svg>